<svg width="104" height="98" viewBox="0 0 104 98" fill="none" xmlns="http://www.w3.org/2000/svg">
<g style="mix-blend-mode:difference" filter="url(#filter0_f_609_4648)">
<path d="M95.5199 84.0431C95.5782 89.0374 77.6242 93.2965 55.4185 93.5561C33.2127 93.8156 15.1641 89.9773 15.1057 84.983C15.0473 79.9887 33.0013 75.7295 55.2071 75.47C77.4128 75.2104 95.4615 79.0487 95.5199 84.0431Z" fill="#303030"/>
</g>
<g clip-path="url(#clip0_609_4648)">
<path d="M102.238 33.8201C100.417 33.8201 7.17385 24.6609 7.17385 24.6609C7.17385 24.6609 3.02014 24.6609 3.27664 27.0195C3.53314 29.378 0.94328 27.5445 0.421997 30.1614C-0.0992855 32.7784 1.72107 32.2533 1.72107 33.8201C1.72107 35.387 -0.620568 37.4872 0.165493 38.5289C0.94328 39.5791 3.28491 39.054 4.58398 40.0958C5.88305 41.1459 3.54142 45.0629 5.10527 45.588C6.66084 46.113 9.25898 44.2795 10.558 45.3296C11.8571 46.3797 10.8145 48.73 12.8997 49.255C14.9765 49.7801 16.5321 47.9466 17.8312 48.73C19.1302 49.5134 18.0877 52.1303 19.6515 52.6554C21.2071 53.1804 21.9932 51.0885 23.5487 51.3469C25.1043 51.6053 24.5913 54.7472 26.1469 54.7472C27.7024 54.7472 27.1894 51.6053 29.2663 52.1303C31.3432 52.6554 30.8219 55.5307 32.3857 56.0557C33.9413 56.5808 35.2404 53.6971 36.8042 54.4889C38.3598 55.2723 38.1033 58.4143 40.1801 58.4143C42.257 58.4143 41.2227 55.539 43.8126 55.7973C46.4107 56.0557 45.1116 58.6726 47.1885 58.9393C49.2653 59.1977 49.5301 56.8475 52.3848 56.5808C55.2394 56.3224 54.9829 58.6726 56.0172 58.9393C57.0598 59.1977 56.5385 56.5808 59.3931 56.3224C62.2478 56.064 61.9913 58.4143 63.5468 58.1559C65.1024 57.8976 64.8459 54.7556 67.1793 54.2305C69.5209 53.7055 70.0339 56.064 71.5977 56.3224C73.1533 56.5808 72.8968 53.1804 74.7172 52.6637C76.5375 52.1386 77.0588 53.7138 78.8709 53.4471C80.6912 53.1888 81.469 49.5217 83.0246 50.3051C84.5802 51.0885 85.6227 52.397 87.6996 51.3552C89.7764 50.3051 89.2552 47.4298 91.0755 47.9549C92.8959 48.4799 92.6311 49.5217 94.1949 49.005C95.7505 48.4799 94.9727 47.6965 96.7931 47.4382C98.1832 47.2382 99.1595 45.1379 100.012 44.6879L101.005 43.0127C101.269 41.3959 101.104 39.0123 102.767 38.804C103.139 38.754 103.421 38.5623 103.619 38.2789C104.53 36.9955 103.744 33.8285 102.246 33.8285L102.238 33.8201Z" fill="#A21E25"/>
<path d="M6.39606 35.6453C6.39606 35.6453 7.95163 52.647 20.9423 60.7645C33.933 68.8736 74.1876 64.9482 84.0589 58.6726C93.9301 52.3969 99.3829 37.2204 99.3829 37.2204L6.39606 35.6536V35.6453Z" fill="#CF7A29"/>
<path d="M94.1867 48.9883C92.6311 49.5133 92.8876 48.4632 91.0672 47.9382C89.2469 47.4131 89.7682 50.2967 87.6913 51.3385C85.6145 52.3886 84.5719 51.0801 83.0163 50.2884C81.4608 49.505 80.6747 53.1637 78.8626 53.4304C77.0423 53.6887 76.521 52.1219 74.7089 52.647C72.8885 53.172 73.1533 56.5724 71.5895 56.3057C70.0339 56.0473 69.5126 53.6887 67.171 54.2138C64.8294 54.7388 65.0941 57.8725 63.5386 58.1392C61.983 58.3975 62.2395 56.0473 59.3848 56.3057C56.5302 56.564 57.0515 59.1809 56.0089 58.9226C54.9664 58.6642 55.2311 56.3057 52.3765 56.564C49.5219 56.8224 49.2571 59.1809 47.1802 58.9226C45.1034 58.6642 46.4024 56.0473 43.8043 55.7806C41.2062 55.5223 42.2487 58.3975 40.1719 58.3975C38.095 58.3975 38.3515 55.2556 36.7959 54.4721C35.2404 53.6887 33.9413 56.564 32.3775 56.039C30.8219 55.5139 31.3349 52.6386 29.258 52.1136C27.1812 51.5885 27.7025 54.7305 26.1386 54.7305C24.5748 54.7305 25.096 51.5885 23.5405 51.3302C21.9849 51.0718 21.1988 53.1637 19.6433 52.6386C18.0877 52.1136 19.122 49.4966 17.8229 48.7132C16.5238 47.9298 14.9683 49.7633 12.8914 49.2383C10.8146 48.7132 11.8488 46.363 10.5498 45.3129C9.25071 44.2628 6.65257 46.0963 5.097 45.5713C3.54143 45.0462 5.87479 41.1208 4.57572 40.079C3.27665 39.0289 0.943287 39.554 0.157227 38.5122C0.157227 38.5122 16.5238 67.2901 19.122 70.1654C21.7201 73.0407 32.1127 82.9833 53.146 82.9833C74.1793 82.9833 84.5719 70.6904 84.5719 70.6904L99.9952 44.6545C99.143 45.1045 97.8522 44.9295 96.7765 45.8379C95.221 47.1464 95.734 48.4549 94.1784 48.9799L94.1867 48.9883Z" fill="#B35830"/>
<path d="M6.39605 35.6452C5.21282 32.4615 7.43861 19.952 10.0285 18.1184C12.6266 16.2849 21.7201 3.46697 25.609 2.1585C29.5062 0.850038 34.1812 3.46697 37.3007 2.1585C40.4201 0.850038 53.146 -0.716786 56.2654 0.591679C59.3848 1.90014 77.8283 5.04213 81.2042 6.60895C84.5801 8.17577 87.9561 12.1012 90.2977 13.4096C92.6393 14.7181 100.169 21.2604 100.69 28.0611C101.212 34.8618 99.6477 39.3122 96.0153 41.9292C92.3828 44.5461 74.1959 55.7972 51.0774 53.9637C26.9412 52.0552 9.51547 44.021 6.40432 35.6535L6.39605 35.6452Z" fill="#D8923B"/>
<path d="M63.2738 36.6953C71.846 35.1285 69.2478 24.1357 76.7775 22.3022C81.2291 21.2188 87.592 17.7601 91.0755 13.918C90.7776 13.7097 90.5046 13.5263 90.2812 13.4013C87.9395 12.0929 84.5636 8.16747 81.1877 6.60065C77.8118 5.03382 59.3683 1.89184 56.2489 0.583378C53.1295 -0.725087 40.4035 0.841737 37.2841 2.1502C34.1647 3.45867 29.4897 0.841737 25.5925 2.1502C21.6953 3.45867 12.6018 16.2766 10.0119 18.1101C10.0119 18.1101 7.1573 28.3112 15.2082 31.7115C23.2591 35.1118 32.6091 24.6441 40.4035 26.7443C48.198 28.8362 54.6933 38.2538 63.2655 36.687L63.2738 36.6953Z" fill="#F2BA5F"/>
<path d="M35.2238 30.9363C32.1706 34.0116 37.9792 47.563 52.4013 45.2878C53.8328 45.0628 54.7843 43.696 54.6023 42.2458C54.2382 39.4039 52.8647 34.8951 47.9497 32.5032C40.4201 28.8445 37.8219 28.3194 35.2238 30.9363Z" fill="#342530"/>
<path d="M30.2923 3.9921C28.7616 2.72531 18.3442 7.13408 17.0451 15.5016C15.746 23.8774 34.7108 7.6508 30.2923 3.9921Z" fill="#342530"/>
<path d="M58.8636 3.99203C58.8636 1.90015 61.2052 -0.716779 63.282 0.591685C65.3589 1.90015 67.4358 -1.24183 70.5552 0.591685C73.6746 2.4252 75.2302 7.13401 74.7089 9.48425C74.1876 11.8428 58.8636 3.99203 58.8636 3.99203Z" fill="#342530"/>
<path d="M77.0423 29.103C76.8271 30.4948 78.3413 35.1203 82.7598 36.4287C87.1783 37.7372 87.9561 41.6626 90.5542 40.0874C93.1524 38.5206 93.6737 31.7116 86.9218 28.3112C80.17 24.9109 77.5718 25.6943 77.0505 29.0947L77.0423 29.103Z" fill="#342530"/>
<path d="M53.6673 3.9921C53.6673 3.9921 37.5654 1.90023 31.0701 12.3679C24.5748 22.8357 38.8645 20.2187 41.9757 16.2933C45.0951 12.3679 57.2997 8.70925 53.6673 4.00044V3.9921Z" fill="#FFCC73"/>
<path d="M37.8219 32.2449C37.2014 33.8034 36.2664 36.4286 38.5997 35.9036C40.9414 35.3785 45.6163 36.1619 45.6163 37.7371C45.6163 39.3123 47.4367 41.1374 48.9923 40.354C50.5478 39.5706 50.0348 36.1703 47.6932 35.3869C45.3516 34.6035 40.6766 33.295 40.4201 32.5116C40.1636 31.7282 38.3432 30.9448 37.8219 32.2532V32.2449Z" fill="#966C62"/>
<path d="M39.8988 38.2622C38.6494 38.6039 41.1979 42.1876 42.7534 41.9209C44.309 41.6625 42.7534 37.4705 39.8988 38.2622Z" fill="#966C62"/>
<path d="M80.1617 28.5862C79.1687 29.5863 79.6404 33.0366 81.982 31.7281C84.3154 30.4197 86.9135 31.4698 86.657 33.0366C86.4005 34.6034 86.657 35.6535 88.2126 35.6535C89.7682 35.6535 89.7682 31.4698 87.9561 30.6864C86.1357 29.903 81.4607 27.286 80.1617 28.5945V28.5862Z" fill="#966C62"/>
<path d="M27.1729 6.8673C26.7675 4.81709 19.8998 10.0093 20.1563 11.3177C20.4128 12.6262 27.4294 8.17576 27.1729 6.8673Z" fill="#966C62"/>
<path d="M61.1969 2.68351C61.1969 2.68351 63.5385 1.6334 64.8293 2.68351C66.1284 3.73362 66.6497 3.73362 67.9488 2.68351C69.2478 1.6334 70.2904 4.77539 69.7691 5.5588C69.2478 6.34221 61.7182 3.72528 61.1969 2.68351Z" fill="#966C62"/>
<path d="M89.5117 51.3468C90.4632 50.8634 89.4786 58.1975 88.5684 63.9731L100.004 44.6711C99.1513 45.1212 97.8605 44.9462 96.7848 45.8546C95.2292 47.163 95.7422 48.4715 94.1867 48.9966C92.6311 49.5216 92.8876 48.4715 91.0672 47.9465C89.2469 47.4214 89.7682 50.305 87.6913 51.3468C85.6145 52.3969 84.5719 51.0884 83.0163 50.2967C81.4607 49.5133 80.6747 53.172 78.8626 53.4387C77.0423 53.697 76.521 52.1302 74.7089 52.6553C72.8885 53.1803 73.1533 56.5807 71.5895 56.314C70.0339 56.0556 69.5126 53.697 67.171 54.2221C64.8294 54.7471 65.0941 57.8808 63.5386 58.1475C61.983 58.4058 62.2395 56.0556 59.3848 56.314C56.5302 56.5723 57.0515 59.1892 56.0089 58.9309C54.9664 58.6725 55.2311 56.314 52.3765 56.5723C49.5219 56.8307 49.2571 59.1892 47.1802 58.9309C45.1034 58.6725 46.4024 56.0556 43.8043 55.7889C41.2062 55.5306 42.2487 58.4058 40.1719 58.4058C38.095 58.4058 38.3515 55.2639 36.7959 54.4804C35.2404 53.697 33.9413 56.5723 32.3774 56.0473C30.8219 55.5222 31.3349 52.6469 29.258 52.1219C27.1812 51.5968 27.7025 54.7388 26.1386 54.7388C24.5748 54.7388 25.096 51.5968 23.5405 51.3385C21.9849 51.0801 21.1988 53.172 19.6433 52.6469C18.0877 52.1219 19.122 49.5049 17.8229 48.7215C16.5238 47.9381 14.9683 49.7716 12.8914 49.2466C10.8146 48.7215 11.8488 46.3713 10.5498 45.3212C9.25071 44.2711 6.65257 46.1046 5.097 45.5795C3.54143 45.0545 5.87479 41.1291 4.57572 40.0873C3.27665 39.0372 0.943287 39.5623 0.157227 38.5205C0.157227 38.5205 3.91377 45.1295 8.10885 52.3219C8.0923 49.9216 8.35708 47.5381 9.50721 47.4131C11.1786 47.2297 12.1881 55.3472 12.6266 59.981C13.694 61.7645 14.7118 63.448 15.6137 64.9148C15.5392 59.2393 15.655 50.8134 17.0368 51.3301C18.6338 51.9302 19.1551 64.5398 19.3123 70.382C19.9411 71.0654 20.9341 72.0405 22.2993 73.1657C21.8608 67.6401 20.9837 53.7887 23.2674 54.2138C25.7663 54.6721 25.8821 71.4988 25.8738 75.7492C26.5027 76.1493 27.1646 76.5493 27.8762 76.9494C27.7521 70.2154 27.6528 54.1221 29.498 54.7388C31.368 55.3639 31.4094 72.0155 31.3514 78.6912C32.3692 79.1413 33.4614 79.583 34.6115 79.9913C34.3054 75.1409 33.3538 56.8724 36.5063 57.0974C39.7912 57.3307 39.0548 77.3744 38.8728 81.2915C39.8574 81.5415 40.8752 81.7665 41.9343 81.9749C41.8681 76.5743 41.835 58.8559 44.036 58.4058C46.3942 57.9308 46.3942 78.7329 46.3776 82.6333C47.5608 82.7583 48.7854 82.8583 50.0514 82.9166C49.7453 79.7746 49.2323 73.8824 49.2323 69.657C49.2323 63.6397 50.0183 59.2476 52.0869 58.9309C55.4628 58.4058 54.9415 66.515 54.685 69.9153C54.4947 72.4156 54.4451 79.4246 54.4285 82.975C55.3883 82.95 56.3316 82.9083 57.2418 82.8333C57.126 77.4327 56.9191 58.9309 59.3517 58.9309C61.7844 58.9309 60.8659 76.6493 60.5102 82.4749C61.561 82.3249 62.5787 82.1332 63.5551 81.9249C63.7868 77.0244 64.8955 57.0724 67.4027 56.839C69.8601 56.614 67.5102 75.7742 66.8069 81.1081C68.1556 80.7164 69.4299 80.2747 70.6214 79.808C71.0434 74.5741 72.6982 55.9473 74.9323 55.2722C77.0505 54.6305 75.1888 71.7905 74.4358 78.0995C75.5032 77.5578 76.4796 76.9994 77.3815 76.4493C77.8118 71.5238 79.4584 54.3304 81.6842 53.4387C83.7527 52.6053 81.7007 67.8735 80.7822 74.1157C83.2894 72.1822 84.5388 70.7071 84.5388 70.7071L84.6298 70.5487C85.7882 64.4481 88.2953 51.9385 89.4703 51.3468H89.5117Z" fill="#D12E37"/>
<path d="M52.1117 58.9308C50.0431 59.2475 49.2571 63.6396 49.2571 69.6569C49.2571 73.8823 49.7701 79.7829 50.0762 82.9166C51.0774 82.9666 52.1034 82.9999 53.1543 82.9999C53.5928 82.9999 54.0231 82.9832 54.4616 82.9749C54.4782 79.4246 54.5278 72.4155 54.7181 69.9153C54.9746 66.5149 55.4959 58.4058 52.12 58.9308H52.1117Z" fill="#A21E25"/>
<path d="M59.3766 58.9309C56.9356 58.9309 57.1508 77.4328 57.2666 82.8333C58.3919 82.7417 59.4841 82.625 60.535 82.4666C60.8908 76.6494 61.7678 58.9226 59.3766 58.9226V58.9309Z" fill="#A21E25"/>
<path d="M67.4358 56.8391C64.9286 57.0725 63.8199 77.0245 63.5882 81.925C64.7135 81.6833 65.8057 81.4083 66.84 81.1082C67.5433 75.7827 69.8932 56.6141 67.4358 56.8391Z" fill="#A21E25"/>
<path d="M74.9654 55.2722C72.7313 55.9472 71.0765 74.5741 70.6545 79.808C72.028 79.2746 73.3023 78.6912 74.4689 78.0995C75.2219 71.7905 77.0836 54.6304 74.9654 55.2722Z" fill="#A21E25"/>
<path d="M81.7173 53.4386C79.4915 54.3387 77.8449 71.532 77.4146 76.4492C78.7302 75.6408 79.8638 74.8407 80.8154 74.1156C81.7338 67.8733 83.7858 52.6051 81.7173 53.4386Z" fill="#A21E25"/>
<path d="M89.5117 51.3467C88.3367 51.9384 85.8296 64.448 84.6712 70.5486L88.5684 63.9729C89.4786 58.1974 90.4632 50.8633 89.5117 51.3467Z" fill="#A21E25"/>
<path d="M44.0525 58.4058C41.8516 58.8475 41.8847 76.5659 41.9509 81.9748C43.3575 82.2415 44.8386 82.4665 46.3942 82.6415C46.4107 78.7411 46.4024 57.939 44.0525 58.4141V58.4058Z" fill="#A21E25"/>
<path d="M36.5229 57.0973C33.3704 56.8723 34.3219 75.1408 34.6281 79.9912C35.9602 80.4663 37.3834 80.8997 38.8976 81.2914C39.0714 77.3826 39.8078 57.339 36.5312 57.0973H36.5229Z" fill="#A21E25"/>
<path d="M29.5062 54.7472C27.6528 54.1305 27.7604 70.2154 27.8845 76.9578C28.9519 77.5495 30.102 78.1412 31.3597 78.6996C31.4176 72.024 31.3762 55.3806 29.5062 54.7472Z" fill="#A21E25"/>
<path d="M23.2757 54.2221C20.9837 53.8054 21.8691 67.6568 22.3076 73.174C23.2922 73.9824 24.4837 74.8575 25.8821 75.7493C25.8904 71.5072 25.7745 54.6721 23.2757 54.2138V54.2221Z" fill="#A21E25"/>
<path d="M17.0451 51.3469C15.6633 50.8218 15.5475 59.2477 15.6219 64.9316C17.2602 67.5735 18.5428 69.5404 19.122 70.1905C19.1799 70.2571 19.2544 70.3321 19.3206 70.4071C19.1633 64.5732 18.6421 51.9553 17.0451 51.3552V51.3469Z" fill="#A21E25"/>
<path d="M9.50721 47.4213C8.36535 47.5463 8.0923 49.9299 8.10885 52.3301C9.6065 54.9054 11.1621 57.539 12.6266 59.9892C12.1881 55.3554 11.1786 47.2296 9.50721 47.4213Z" fill="#A21E25"/>
<path d="M60.5598 9.90942C58.2926 9.90942 55.6117 12.6764 56.9853 14.8933C58.3588 17.1101 59.1863 12.4013 61.6603 12.6764C64.1343 12.9514 63.3069 9.90942 60.5598 9.90942Z" fill="#FFCC73"/>
<path d="M49.5632 16.2765C47.9332 16.5515 47.0892 18.2184 47.9166 20.1519C48.7441 22.0938 45.9887 22.9188 45.9887 22.9188C45.9887 22.9188 49.0088 25.4108 50.3906 22.3688C51.7642 19.3185 51.2181 16.0015 49.5632 16.2765Z" fill="#FFCC73"/>
<path d="M59.1863 18.7687C57.3576 17.5435 54.2382 20.7105 55.3387 22.9191C56.4392 25.136 60.8329 19.8771 59.1863 18.7687Z" fill="#FFCC73"/>
<path d="M25.3774 19.3269C23.4495 19.3269 22.6303 19.877 22.0759 22.9273C21.5298 25.9692 18.5014 24.5858 18.5014 24.5858C18.5014 24.5858 19.3288 27.6277 22.622 26.8027C25.9235 25.9692 28.1162 19.3269 25.3691 19.3269H25.3774Z" fill="#FFCC73"/>
<path d="M14.0995 19.0435C12.3618 19.0435 11.8985 22.3688 13.5533 23.4772C15.1999 24.5857 15.1999 19.0435 14.0995 19.0435Z" fill="#FFCC73"/>
<path d="M70.1828 13.7847C67.7667 13.1763 66.3353 17.3851 67.4357 18.2185C68.5362 19.0519 72.3838 14.3431 70.1828 13.7847Z" fill="#F2BA5F"/>
<path d="M26.7509 34.5534C24.5003 34.8034 23.1764 37.8787 25.3773 38.4288C27.5783 38.9788 29.2249 34.2783 26.7509 34.5534Z" fill="#F2BA5F"/>
<path d="M10.8063 33.4451C9.4079 33.4451 10.8063 38.7039 13.8347 38.1539C16.8548 37.6038 12.1881 33.4451 10.8063 33.4451Z" fill="#F2BA5F"/>
<path d="M63.8612 45.0796C62.3305 44.0461 65.5078 41.4792 67.1627 42.0293C68.8093 42.5793 69.0906 39.8124 69.9098 38.7039C70.7372 37.5955 72.1107 42.3043 69.9098 43.9628C67.7088 45.6213 65.5078 46.1797 63.8612 45.0712V45.0796Z" fill="#F2BA5F"/>
<path d="M89.1476 19.602C89.1476 19.602 88.0471 22.6439 89.975 23.4773C91.9029 24.3108 91.6216 26.8027 93.0034 26.5193C94.377 26.2443 91.6299 18.2101 89.1559 19.5936L89.1476 19.602Z" fill="#F2BA5F"/>
</g>
<defs>
<filter id="filter0_f_609_4648" x="11.1056" y="71.4575" width="88.4144" height="26.1111" filterUnits="userSpaceOnUse" color-interpolation-filters="sRGB">
<feFlood flood-opacity="0" result="BackgroundImageFix"/>
<feBlend mode="normal" in="SourceGraphic" in2="BackgroundImageFix" result="shape"/>
<feGaussianBlur stdDeviation="2" result="effect1_foregroundBlur_609_4648"/>
</filter>
<clipPath id="clip0_609_4648">
<rect width="104" height="83" fill="white"/>
</clipPath>
</defs>
</svg>
